<svg width="57" height="54" viewBox="0 0 57 54" fill="none" xmlns="http://www.w3.org/2000/svg">
<path fill-rule="evenodd" clip-rule="evenodd" d="M1.46169 1.21071C0.583008 2.08939 0.583008 3.5036 0.583008 6.33203V47.6654C0.583008 50.4938 0.583008 51.908 1.46169 52.7867C2.34037 53.6654 3.75458 53.6654 6.58301 53.6654H50.1619C52.9903 53.6654 54.4046 53.6654 55.2832 52.7867C56.1619 51.908 56.1619 50.4938 56.1619 47.6654V6.33203C56.1619 3.5036 56.1619 2.08939 55.2832 1.21071C54.4046 0.332031 52.9903 0.332031 50.1619 0.332031H6.58301C3.75458 0.332031 2.34037 0.332031 1.46169 1.21071ZM43.0884 19.5692C43.4035 19.1156 43.2913 18.4924 42.8377 18.1773C42.3841 17.8622 41.761 17.9745 41.4459 18.428L31.2739 33.0696L27.2446 25.3368C26.5497 24.003 24.6866 23.8847 23.8285 25.1198L13.6564 39.7614C13.3413 40.2149 13.4536 40.8381 13.9071 41.1532C14.3607 41.4683 14.9838 41.3561 15.299 40.9025L25.471 26.2609L29.5002 33.9938C30.1952 35.3275 32.0583 35.4459 32.9164 34.2107L43.0884 19.5692Z" fill="#394855"/>
</svg>
