<svg width="22" height="22" viewBox="0 0 22 22" fill="none" xmlns="http://www.w3.org/2000/svg">
<path fill-rule="evenodd" clip-rule="evenodd" d="M11.621 1.73402L7.93142 1.15424C4.71084 0.648147 3.10055 0.395101 2.05027 1.29322C1 2.19134 1 3.82139 1 7.0815V10.0654H6.91938L4.21913 6.69012L5.78087 5.44073L9.78087 10.4407L10.2806 11.0654L9.78087 11.6901L5.78087 16.6901L4.21913 15.4407L6.91938 12.0654H1V15.0485C1 18.3086 1 19.9387 2.05027 20.8368C3.10055 21.7349 4.71084 21.4819 7.93143 20.9758L11.621 20.396C13.2337 20.1426 14.04 20.0159 14.52 19.4546C15 18.8933 15 18.077 15 16.4445V5.68553C15 4.05301 15 3.23675 14.52 2.67546C14.04 2.11417 13.2337 1.98745 11.621 1.73402Z" fill="#003585"/>
</svg>
