<svg width="14" height="14" viewBox="0 0 14 14" fill="none" xmlns="http://www.w3.org/2000/svg">
<path d="M1.6875 3.375C2.61948 3.375 3.375 2.61948 3.375 1.6875C3.375 0.75552 2.61948 0 1.6875 0C0.75552 0 0 0.75552 0 1.6875C0 2.61948 0.75552 3.375 1.6875 3.375Z" fill="white"/>
<path d="M3.09375 4.5H0.28125C0.126 4.5 0 4.626 0 4.78125V13.2188C0 13.374 0.126 13.5 0.28125 13.5H3.09375C3.249 13.5 3.375 13.374 3.375 13.2188V4.78125C3.375 4.626 3.249 4.5 3.09375 4.5Z" fill="white"/>
<path d="M11.4733 4.11247C10.2712 3.70072 8.76769 4.06241 7.866 4.71097C7.83506 4.59003 7.72481 4.50003 7.59375 4.50003H4.78125C4.626 4.50003 4.5 4.62603 4.5 4.78128V13.2188C4.5 13.374 4.626 13.5 4.78125 13.5H7.59375C7.749 13.5 7.875 13.374 7.875 13.2188V7.15503C8.3295 6.76353 8.91506 6.63866 9.39431 6.84228C9.85894 7.0386 10.125 7.51785 10.125 8.15628V13.2188C10.125 13.374 10.251 13.5 10.4062 13.5H13.2188C13.374 13.5 13.5 13.374 13.5 13.2188V7.58985C13.4679 5.27853 12.3806 4.42297 11.4733 4.11247Z" fill="white"/>
</svg>
