<svg width="16" height="11" viewBox="0 0 16 11" fill="none" xmlns="http://www.w3.org/2000/svg">
<path fill-rule="evenodd" clip-rule="evenodd" d="M14.2659 0.343069C14.951 0.524413 15.4906 1.05589 15.6745 1.72945C16.0159 2.95882 15.9999 5.52198 15.9999 5.52198C15.9999 5.52198 15.9975 8.07101 15.6665 9.2996C15.4803 9.97238 14.9382 10.5031 14.2539 10.6836C13.002 11.0055 7.99355 11 7.99355 11C7.99355 11 2.99868 10.9945 1.73398 10.6569C1.04806 10.4756 0.508443 9.94411 0.324573 9.27133C-0.0031954 8.05452 1.17004e-06 5.49215 1.17004e-06 5.49215C1.17004e-06 5.49215 0.00320009 2.94234 0.333367 1.71296C0.518835 1.04018 1.07364 0.496937 1.74517 0.317162C2.99788 -0.00548932 8.00554 5.96305e-06 8.00554 5.96305e-06C8.00554 5.96305e-06 13.014 0.00550127 14.2659 0.343069ZM6.4083 3.14453L6.4043 7.85477L10.571 5.50358L6.4083 3.14453Z" fill="white"/>
</svg>
